<svg version="1.1" xmlns="http://www.w3.org/2000/svg" xmlns:xlink="http://www.w3.org/1999/xlink" xmlns:i="http://ns.adobe.com/AdobeIllustrator/10.0/" xmlns:sketch="http://www.bohemiancoding.com/sketch/ns" height="100%" width="100%" x="0px" y="0px" viewBox="0 0 640 480" xml:space="preserve" preserveAspectRatio="xMidYMid meet" class=""><rect x="0px" y="0px" width="100%" height="100%" fill="none"/><g class="logo-container-box logoContainerBox" transform="scale(1) translate(-0.0000152587890625,0.0000152587890625)"><g class="container_1" transform="scale(1) translate(39.99993133544922,34.96437072753906)"  fill="#000000"><g>
	<path class="st0" d="M468.9,179.9c-0.1-0.4-0.2-0.8-0.2-1.3l0.1,2C468.8,180.1,468.8,179.9,468.9,179.9z"/>
	<path class="st0" d="M452.4,300.3c0,0.1-0.1,0.1-0.1,0.2c0.2-0.2,0.4-0.4,0.4-0.4C452.7,299.8,452.7,299.8,452.4,300.3z"/>
	<path class="st0" d="M463.7,271.1c0.2-0.5,0.5-1,0.7-1.4C464.3,269.7,464,270.3,463.7,271.1z"/>
	<path class="st0" d="M469.9,197.1c0-1.4,0.1-2.7,0.1-4.1C469.8,193.5,469.7,195,469.9,197.1z"/>
	<path class="st0" d="M463.7,271.1c-0.6,1.2-1.1,2.5-1.6,3.9C462.6,274,463.2,272.3,463.7,271.1z"/>
	<path class="st0" d="M419.1,345.2l-2.2,2.1c0.7-0.6,1.4-1.2,2.1-1.9C419,345.3,419.1,345.2,419.1,345.2z"/>
	<path class="st0" d="M372.6,366.6c0.1-0.1,0-0.1-0.5,0.1C372.2,366.7,372.4,366.7,372.6,366.6z"/>
	<path class="st0" d="M409,354.4c0,0,2-1.7,4-3.5c2-1.7,3.9-3.6,3.9-3.6c-0.7,0.6-1.4,1.1-1.9,1.5c-0.6,0.4-1,0.7-1.3,0.8
		c-0.4,0.3-0.5,0.1,0.1-0.6C412.1,350.8,408.8,354,409,354.4z"/>
	<path class="st0" d="M139.1,320.1L139.1,320.1c0,0-0.2-0.2-0.3-0.3C138.9,319.8,139,319.9,139.1,320.1z"/>
	<path class="st0" d="M138.8,319.7c-1.8-2.2-2.8-3.3-3.3-3.9C136.5,317.2,137.7,318.5,138.8,319.7z"/>
	<path class="st0" d="M143,324.1c0.3,0.2,0.6,0.5,0.8,0.6C143.1,323.9,142.9,323.9,143,324.1z"/>
	<path class="st0" d="M139.2,320.2l1.4,2.2c0.5,0.6,0.9,1.1,1.3,1.5c0.4,0.4,0.7,0.7,0.9,0.9c0.5,0.4,0.7,0.5,0.7,0.5
		c0.1-0.1-0.3-0.8-0.5-1.2C142,323.3,140.7,321.9,139.2,320.2z"/>
	<path class="st0" d="M444.6,100.7c0.3,0.5,0.7,1,1,1.6C445.3,101.8,445,101.3,444.6,100.7z"/>
	<path class="st0" d="M174.5,354.1c0,0,0.3,0.3,0.6,0.6c0.3,0.1,0.6,0.3,0.7,0.3C176.1,355.1,175.8,355,174.5,354.1z"/>
	<path class="st0" d="M268.4,18.8c-0.5,0-0.9,0-1.3,0.1C267.6,18.8,268,18.8,268.4,18.8z"/>
	<path class="st0" d="M95.4,176.6c0,0.4-0.1,0.8-0.1,0.9C95.4,177.1,95.4,176.8,95.4,176.6z"/>
	<path class="st0" d="M445.9,304.3l1-1.6C446.4,303.4,446.1,303.9,445.9,304.3z"/>
	<path class="st0" d="M476.1,195.1c-0.1-1-0.2-1.9-0.4-2.8c-0.2-0.9-0.3-1.7-0.5-2.6c-0.3-1.8-0.6-3.7-0.9-6.1
		c-0.3-2.5-0.8-5.5-1.2-9.7c0.4,0.2,0.8,2.6,1.2,5.3c0.2,1.4,0.5,2.8,0.6,4.2c0.2,1.4,0.3,2.6,0.5,3.6c0-0.8-0.1-2-0.3-3.4
		c-0.1-1.4-0.4-3-0.6-4.5c-0.5-3.1-0.8-5.9-0.7-6.8c-1.3-5.8-2.2-8.4-3.1-10.1c-0.9-1.7-1.6-2.7-2.6-5.4c-0.1-0.6-0.3-1.1-0.4-1.6
		c-0.1-0.5-0.2-0.8-0.3-1.2c-0.2-0.7-0.3-1.1-0.3-1.4c-0.1-0.6,0-0.4,0.2,0c0.4,0.8,1.2,2.7,1.2,2.5c-0.8-2.8-3.3-6.9-3.2-9.7
		c-2-4.3-3.4-6.5-1.4,0.1c-0.8-2.4-1.9-5.3-2.9-7.8c-1.1-2.4-2-4.3-2.4-4.9c1.2,1.7,0.8,0.3,0.1-1.6c-0.4-1-0.8-2.1-1.1-3
		c-0.3-0.9-0.5-1.6-0.4-1.8c-0.8-1.8-1.8-4.1-3-6.7c-1.2-2.5-2.7-5.3-4.2-8c-3.1-5.4-6.4-10.5-9-13.2l2.1,1.2c0,0-1.3-1.9-2.6-3.8
		c-1.2-1.9-2.6-3.7-2.6-3.7c-1.8-2.9-0.4-1.4,1.7,1.3c1.6,2.2,3.6,5.1,4.9,7.2c-1.3-2-2.5-3.9-3.7-5.6c-0.4-0.6-0.7-1.1-1.1-1.7
		c-0.4-0.5-0.8-1.1-1.2-1.6c-0.8-1-1.5-2.1-2.3-3.1c-0.7-1-1.5-2-2.2-3c-0.8-1-1.6-1.9-2.4-2.9c-1.6-1.9-3.2-4-5.1-6.1
		c2,2.6,0.5,1.3,1.3,2.7c-1.3-1.4-2.9-3-4.5-4.7c-1.5-1.7-3-3.5-4.5-4.8c-0.2-0.4-0.2-0.6,0.1-0.4c0.3,0.2,1.1,0.8,2,1.8
		c-0.1-0.1-0.4-0.4-0.7-0.8c-0.5-0.5-1.2-1.2-1.9-1.8c-1.4-1.3-2.8-2.7-2.8-2.7c0.9,0-1.8-2.7,3.9,2.4l-5.2-4.9
		c-5.6-5.5,0.7-0.2,2.2,1.1c0,0-0.5-0.6-1.4-1.4c-0.8-0.9-2-1.9-3.1-2.9c-2.3-2.1-4.6-4.2-4.6-4.2c-3.6-2.6,1.6,2-5.1-3.2
		c-1.1-1-2.2-1.9-3.3-2.9c-1.2-1-2.4-1.9-3.7-2.9s-2.6-1.9-3.9-2.9s-2.7-1.9-4.1-2.8c-1.4-0.9-2.8-1.9-4.2-2.8
		c-1.4-0.9-2.9-1.7-4.4-2.6c-1.5-0.9-2.9-1.7-4.3-2.6c-1.5-0.8-2.9-1.6-4.4-2.4c0,0,2,1.2,3.9,2.4c1,0.6,1.9,1.3,2.6,1.8
		s1.2,0.8,1.2,0.8c-1.7-1-2.9-1.7-3.8-2.1c-0.9-0.4-1.5-0.6-2-0.6c-0.9-0.1-1.3,0.1-2.5-0.3c-6.2-3.6-15.2-7.3-20.7-9.8
		c3.3,1.1,4.4,1.1,3.9,0.6S350,22,347,20.7c-3.5-1.2-5.9-2-7.7-2.5c-1.8-0.4-3-0.6-4-0.8c-1-0.1-1.8-0.2-2.8-0.3
		c-1-0.1-2.3-0.4-4.3-0.8c6.5,0.3-9.8-2.9-8.3-3.2c-9.1-1.9-18.5-3.1-27.9-3.7c-9.4-0.5-18.9-0.4-28.6,0.2c0.4,0.1,5.9,0.1,2.6,0.4
		c-1.8,0.1-3.3,0.3-4.6,0.4c-1.3,0.1-2.4,0.1-3.4,0.2c-1.8,0-3-0.1-3.4-0.1c-2.3,0.3-4.3,0.7-6.1,1c-1.8,0.3-3.4,0.6-4.8,1
		c-2.8,0.7-4.7,1.3-6.2,1.8c3.9-0.9,4.3-0.8,3.6-0.3c-2.2,0.5-3.7,0.7-4.9,0.9c-1.2,0.2-2,0.3-2.7,0.5c-1.6,0.3-3.1,0.5-7.2,1.9
		c-2.4-0.2,9.2-2.6,8.3-3.1c-7.9,1.8-12.6,3.5-18.1,5.6c-0.7,0,0.6-0.5,1.5-0.8c0.9-0.3,1.5-0.5-0.7,0c-2.9,1.1-6,2.2-9.1,3.5
		c-3,1.3-6.1,2.6-9,4c-2.9,1.5-5.7,2.8-8.3,4.2c-2.5,1.4-4.9,2.7-6.9,3.9c0,0-0.6,0.2-1.3,0.3c-0.6,0.2-1.2,0.4-1.2,0.4
		c-2.6,1.5-4.7,2.8-6.4,4c-1.8,1.1-3.1,2.2-4.1,3c-2.8,1.6-0.8,0.1,1.7-1.7c-3.4,2.2-7.1,4.7-10.2,7.2c-1.6,1.2-3.1,2.4-4.4,3.5
		c-1.3,1.1-2.4,2.1-3.3,2.8c0.3-0.7,3.5-3,4.4-3.9c-8.1,6-16.7,15.4-21.7,19.6c0.5-0.7,1.2-1.4,1.8-2c-1.3,1.3-2.6,2.6-3.9,3.9
		c-1.2,1.4-2.4,2.7-3.6,4c-1.2,1.4-2.4,2.6-3.5,4c-1.1,1.4-2.2,2.8-3.3,4.2c-4.4,5.6-8.5,11.6-12.8,18.4c-8.1,12.4-1.8,4.5-8.7,17.2
		c-0.7-0.3-2.9,4.2-5.1,9.4c-1,2.7-2.1,5.5-3,8.1c-0.8,2.6-1.6,4.8-2.2,6.3l0.9-1.8c-0.4,1.7-1.1,3.6-1.6,5.5
		c-0.5,1.9-1.2,3.9-1.8,5.8c-0.7,1.9-1.2,3.7-1.7,5.4s-1,3.1-1.4,4.3c-0.7,2.6-1.2,5.6-1.8,8.8c-0.3,1.6-0.5,3.2-0.8,4.9
		c-0.2,1.7-0.5,3.3-0.7,5c-0.4,3.4-0.6,6.7-0.8,9.9c-0.1,3.2-0.1,6.3-0.1,9l-0.2-2.2c0,1.1,0,2.2,0,3.2s0,2,0,3c0,1.9,0,3.7,0,5.5
		c0,1.8,0.1,3.6,0.2,5.5c0.1,1,0.1,1.9,0.2,3c0.1,1,0.2,2.1,0.3,3.2c-0.1-0.2-0.6-3.5-0.4-0.1c1.4,21.5,6.9,43,15.7,62.9
		c4.4,9.9,9.8,19.4,15.7,28.5c2.9,4.6,6.2,8.8,9.4,13.2c1.7,2.1,3.4,4.2,5.1,6.2c0.8,1.1,1.7,2,2.6,3l2.7,3
		c7,7.5,14.6,14.9,23.1,21.6s17.8,12.8,27.6,18.2c9.9,5.3,20.3,9.9,31.2,13.5c10.9,3.6,22.1,6.2,33.5,7.8
		c22.8,3.2,46.1,2.3,67.8-2.4c10.9-2.4,21.3-5.7,31.2-9.7c1.2-0.5,2.5-1,3.7-1.5s2.4-1,3.6-1.6c2.4-1.1,4.7-2.3,7.1-3.4
		c2.3-1.2,4.6-2.5,6.8-3.7l1.7-0.9l1.6-1c1.1-0.7,2.2-1.3,3.2-2c0,0,0.5-0.4,1.3-1.1s1.9-1.6,3.2-2.9c2.5-2.5,5.9-5.7,8.7-9.1
		c1.4-1.7,2.9-3.3,4-4.9c1.2-1.6,2.1-3.1,2.9-4.3c2.4-2.6,2.7-4.1,1.2-3.8c-1.3,0.8,0-0.5,1-1.6c1-1.1,1.7-2-0.8,0.1l-4.3,4.5
		c0.5-0.8-1.7,0.5-2.8,1c0.4-0.2,0.7-0.5,1-0.6c0.1-0.2-0.5,0.1-1,0.4c0.3-0.4,0.8-0.9,1.5-1.6c-1,0.9-1.6,1.4-1.8,1.7
		c-0.1,0-0.1,0.1-0.2,0.1c-0.9,0.9-0.6,0.8,0,0.4c-0.9,1.6,6.9-4.1,1.9,1.1c-1.1,1.4-5.7,4.6-8,6.3c2.6-1.8,2.7-1.7,1.8-0.8
		c-0.4,0.4-1,1-1.7,1.6c-0.7,0.6-1.4,1.1-1.9,1.5c-1.7,1-3.9,2.3-5.8,3.5c-2,1.1-3.8,2.1-4.7,2.3c-0.2,0.2-1,0.7-1.9,1.3
		c-0.5,0.3-1,0.6-1.5,0.9s-1,0.5-1.5,0.8l-0.3-0.1c-4,2.4,1.5-0.5,0.6,0.2c-1.5,0.8-3.5,1.7-5.7,2.8c-1.1,0.5-2.3,1-3.5,1.5
		s-2.5,1.1-3.7,1.7c2.5-1.2,4.8-2.3,6.8-3.5s3.8-2.3,5.5-3.3c-4.5,2.1-4.3,1.7-2.7,0.4c0.8-0.6,1.9-1.4,2.9-2.1
		c0.4-0.3,0.7-0.5,1-0.8c2.7-1.5,4.6-2.8,4.9-3.2c0.2,0,2.1-1,0.6,0c1.3-0.7,2.4-1.5,3.3-2.1c0.7-0.5,1.3-0.9,1.9-1.4
		c-0.4,0.3-1.1,0.7-1.6,1c1.1-0.9,3.4-2.5,2.7-2.4c-1.1,0.8-1.2,0.9-2.7,1.9c0.5-0.6,4.5-3.3,5.6-3.8c0.6-0.3,0.1,0.2-0.5,0.7
		c-0.5,0.5-1,0.9,0,0.3c0,0,0.4-0.3,1-0.8c0.6-0.5,1.3-1.1,2.1-1.8c0.7-0.6,1.3-1.1,1.9-1.6c-1.1,0.8-2.2,1.5-1.9,1.1l-2.4,1.9V356
		c-2.1,1.6-4,2.7-5.8,3.9c-0.9,0.6-1.8,1.2-2.8,1.8c-1,0.6-2.1,1.3-3.2,2l1.9-0.8c-1.4,0.8-2.7,1.7-4,2.5c-0.7,0.4-1.3,0.8-2,1.2
		c-0.7,0.3-1.3,0.6-2,0.9c1.2-0.8,0.3-0.4,0.2-0.5c-0.6,0.4-1.3,0.8-2.1,1.2l0.5-0.4c-0.8,0.6-2.2,1.3-3.6,2
		c-0.9,0.5-1.9,0.9-2.7,1.3c-0.8,0.3-1.5,0.6-1.8,0.8l0.4-0.3c0,0,0,0,0,0c0,0,0,0,0,0c-2.2,0.9-1.9,0.9-1.5,0.8
		c-0.5,0.3-1,0.5-1.5,0.8c-1.1,0.4-0.5-0.2-2.4,0.5c-1.5,0.6-3.3,1.4-5.4,2.2c0.5-0.3,1.1-0.7,2-1.2c-2.8,0.8-4.3,1.5-5.6,2.1
		c-1.1,0.6-2,1.1-3.1,1.7c-1.7,0.6-3.4,1.1-4.8,1.5c-4,1.3-8.4,2.8-12.1,3.8c-3.6,0.9,0.2-0.5-3.5,0.6c0.3-0.3-0.2-0.3-0.6-0.3
		c-1.1,0.3-6.5,1.3-3.7,1c-2.7,0.5-5.6,1.1-8.5,1.4c-2.5,0.3-5,0.8-7.5,1c-0.1,0-0.2,0-0.3,0c1.1-0.2,1.2-0.4-0.1-0.4
		c-0.4,0.1-0.9,0.2-1.4,0.3c-0.3,0-0.4-0.1-0.4-0.2c3.4-0.6-3.1,0.2-2.5-0.2c-0.8,0-1.6,0.1-2.3,0.2c-0.8,0.1-1.4,0.1-2.2,0.2
		c-1.5,0.1-3.2,0.3-5.9,0.4c-0.1,0.2,1.8,0.2-0.7,0.4c0,0,0,0,0,0c0.1,0,0.3,0,0.4,0c1.4,0,2.5,0,1.5-0.2c1-0.2,3.4-0.4,5.8-0.5
		c1.2,0,2.4-0.1,3.4-0.2c0.7-0.1,1.3-0.1,1.8-0.1c-1.9,0.3-1.4,0.4-0.5,0.4c-0.7,0.1-1.4,0.2-2.2,0.3c-2.1,0.3-4.5,0.3-6.9,0.4
		c0.1,0.3,1.4,0.2,1.3,0.4c-0.1,0-0.2,0.1-0.2,0.1c-0.7,0.1-1.8,0.3-2.9,0.3c-0.4-0.1-0.5-0.3-1.1-0.4c-0.6-0.2-1.6-0.3-3.8-0.3
		c0.1,0,0.2-0.1,0.4-0.1c-2.3,0-3.2-0.4-4.1-0.4c0.7,0,1.7-0.1,2.4-0.1c-1.5-0.1-2.6,0-3.7,0c-1.1,0-2.2,0-3.9-0.1
		c-0.9-0.5,5.4,0.3,6.6-0.1l-2.4-0.4c-5.1-0.3-1.4,0.3-6.7-0.1l0.7-0.1c0,0-0.9,0-1.7,0c-0.9,0-1.7-0.1-1.7-0.1
		c-0.1,0.1,0.1,0.3,0.6,0.4s1.4,0.2,2.8,0.3c-1,0.2-1.6,0.2-2.6,0.1c-0.9-0.1-2.2-0.3-4.5-0.5c-1.5,0.1,1.9,0.1,2,0.4
		c0.4,0.3-2.7,0-5-0.2c-1.9-0.2-2.3-0.4-2.5-0.5c-0.2-0.1-0.1-0.2-0.8-0.4c0.4,0.1,1.2,0.2,2,0.3c0.7,0,1.4,0.1,1.2,0.2
		c4.6,0.2-1.9-0.7,1.3-0.6c-2.1-0.3-2.9-0.3-3.6-0.3c-0.4,0-0.8,0-1.4-0.1c0.5,0.1-0.7,0.1,0,0.4c-3-0.1-4-0.4-4.9-0.7
		c-0.9-0.3-1.7-0.8-4.6-1.3c1.1,0.6-7.8-0.9-3.7,0.4c-1.4-0.2-3.2-0.5-4.6-0.9c1.6,0.1-2.5-0.9,0.3-0.5l-2.1-0.5l3.2,0.4
		c-2.3-0.8-6-1.9-7.2-2.4c-3-0.8,0.8,0.5-2.6-0.4c1.3,0.2-0.8-0.6-2.3-1c3,1-0.1,0.4-2-0.1c-3-0.9-5.2-2.1-4.8-2l1.8,0.4
		c-0.8-0.2-0.4-0.3-2.1-0.8c-0.7,0-2.2-0.3-3-0.3c-0.5-0.2-0.9-0.3-1.3-0.5c-0.4-0.2-0.8-0.3-1.1-0.5c-0.6-0.3-1.1-0.6-1.4-0.7
		c0,0,0.7,0.2,1.5,0.5c0.3,0.1,0.7,0.2,1,0.3c0.2,0,0.4,0,0.4,0.1c-3.8-1.5-0.7-0.8-4.6-2.3l-1.1-0.2c-0.5-0.3-0.8-0.4-0.7-0.5
		c-0.9-0.2-2.6-1-3.5-1.3l-0.2-0.3c-1.7-0.7-3.9-1.3-5.7-2.5c1.4,1.1,2,1,4.7,2.4c1.6,1-2.9-1-3.5-1.3c0.2-0.1-0.9-0.6-2.2-1.2
		c-1.3-0.7-2.8-1.4-3.8-1.9c-1-0.7-2-1.3-2.6-1.7l-0.9-0.2c-0.4-0.9-3.8-2.1-5.8-3.5c1.2,0.5,1.1,0.2-0.3-0.7c0.9,0.8,0,0.4-1-0.1
		c-1.1-0.5-2.2-1.2-2-0.9c-3.6-2.5,1.1,0.2,0.2-0.8c-2-0.9-4-2.8-5.4-3.3c2.6,1.8-0.6-0.1-1.2-0.3c-2.5-1.8-0.8-0.6-0.9-0.8
		c0.1,0,0.2,0.1,0.3,0.1c0.8,0.4,1.3,0.7,1.3,0.7s-0.3-0.3-0.6-0.6c0,0,0,0,0,0c-0.3-0.2-0.7-0.3-1.1-0.5c-0.1,0-0.2-0.1-0.2-0.1
		c-0.1-0.1-0.2-0.2-0.4-0.3c-1.3-1-3.1-1.9-1.6-0.6c0,0-0.1,0-0.1-0.1c-0.6-0.4-1.2-0.8-1.8-1.3l-1.1-1.7c-2.5-2-4.6-2.8-5.6-4.3
		c-1.6-1.8-0.1-0.9,0.8-0.6c0.4,0.2,0.7,0.2,0.2-0.2c-0.2-0.2-0.6-0.6-1.2-1.1c-0.3-0.3-0.7-0.6-1.1-0.9c-0.4-0.4-0.9-0.8-1.4-1.3
		c-2.3-2.1-4-3.6-5.4-4.8c-1.3-1.2-2.4-2-3.4-2.8c-1.9-1.5-3.6-2.6-6.3-5.9c0.2,0.4,0.7,1,1.3,1.7c0.3,0.4,0.7,0.8,1.1,1.2
		c0.4,0.4,0.9,0.9,1.3,1.3c-1.1-0.8-0.9-0.4-0.8-0.1c-1.5-1.5-2.9-3.1-4.4-4.8c-0.6-0.7-1.3-1.5-2-2.3c-2.2-2.7-4.7-5.7-6.8-8.4
		c1.4,1.2-0.9-2.6,0.6-1c-2.1-2.7-4.1-5.2-5.3-6.2c3.9,5.8,1.8,3.2-0.6,0.2c-1.5-2.1-3.2-4.3-3.2-4c-0.1-0.2-0.2-0.3-0.3-0.5
		c-0.4-0.8-0.9-1.6-1.5-2.5c-0.5-0.9-1.1-2-1.7-3.1c0.9,1.6,0.3,0.8-0.4-0.1c-0.2-0.4-0.4-0.9-0.6-1.3c-0.6-1.2-1.1-2.4-1.7-3.6
		c-0.5-1.2-1.1-2.5-1.8-4.1c0.2,0.1,1.7,2.9,2.8,4.4c0.5,0.8,0.9,1.3,0.9,1c0-0.1-0.2-0.4-0.4-0.9c-0.3-0.5-0.7-1.3-1.2-2.4
		c-4.7-7.5-2-1.6-3.2-2.5c-0.5-0.8-1-1.6-1.3-2.3c-0.2-0.5-0.2-0.6-0.2-0.8c-1.1-2.5-1.4-2.5-1.9-3.4l-0.6-1.7l-0.3-0.3
		c-0.6-1.3-1.3-2.7-1.7-3.8c-0.4-1.1-0.6-1.9-0.4-1.8c-0.5-0.9-0.9-1.9-0.5-0.6c-0.2-0.8-0.7-1.9-1.2-3.2c0.5,0.7,0.4,0.5,2,3.2
		c-1.4-3.5-2.1-5.2-2.3-6s0-0.6,0.2-0.4c0.4,0.5,1.1,1.4-0.6-4.1c-0.7-1.7-0.9-1.9-1.3-2.5c-0.2-0.3-0.4-0.6-0.6-1.2
		c-0.2-0.6-0.5-1.5-0.9-3c0.3,3.5-0.1,3.2,3.1,12.2c-0.2-0.2-0.4-0.5-0.5-0.9c-0.1-0.1-0.1-0.3-0.2-0.4c-1-2.7-2-5.6-2.8-7.9
		c0.2,0.7,0.4,1.2,0.4,1.5c0,0,0-0.1,0-0.1c-0.3-0.8-0.5-1.7-0.7-2.6c-0.2-0.9-0.5-1.8-0.7-2.7c-0.2-0.9-0.5-1.7-0.8-2.5
		c-0.4-1.7-0.9-3.4-1.3-5.2c-0.5-2-1.1-4-1.5-6.1c-0.4-2.1-0.8-4.2-1.2-6.2c-0.3-1.6-0.3-1.1-0.5-1.9c-0.2-2.6-0.6-5.5-1-8.4
		c-0.3-2.9-0.7-5.9-0.8-8.7c-0.1,1.3-0.6-0.5-0.7-3.6c-0.4-3.3,0.4-1.3,0.4-4.4c-0.2-1.5-0.2-4.4-0.2-5.6l0.1,0.1
		c-0.1-0.9-0.2-2.1-0.2-3.4c0-1.3,0.1-2.6,0.2-3.7v0.3c0.1-1.8,0.4-3.9,0.5-5.8c-0.2-0.8,0.4-5.5,0.3-6.6c0-0.3,0,0.1,0.1-0.4
		l-0.2-0.2c0,0,0.1-0.2,0.1-0.6c0-0.4,0.1-0.8,0.2-1.3c0.1-1,0.3-1.9,0.3-1.9c0,0.8,0.1,1,0,2.1c0.8-4,0-1.4,0.2-3.5
		c0.2-2.9,0.4-2.7,0.7-4c0,1.1-0.3,2-0.4,2.7c0,1.6,0.4-1.7,0.5-1.7c0.2-0.6-0.2-0.9,0.3-2.9c0.4-1.7,1.1-5.9,1.3-5.3
		c0.1-0.8,0.2-1.6,0.4-2.4c0.2-0.8,0.3-1.5,0.4-2.1c-0.2,0.7-0.5,1.7-0.7,2.6c-0.2,0.8-0.4,1.6-0.5,1.7c0.2-0.7,0.3-1.7,0.5-2.5
		c0.2-0.9,0.4-1.6,0.5-1.8l-0.2,1.1c0.2-0.9,1.1-4.3,0.6-3.2l0.9-2.3c0-1.1,0.8-3.7,1.4-5.9c0.3,0,0,1.8,1.3-2.2
		c0,0,0.2-0.9,0.4-1.8c0.3-0.9,0.5-1.8,0.5-1.8c0.6-1.8,0.9-2.2,0.9-1.9c2.3-6.2,1.7-6.6,3.8-11.3c-0.5,1.7-0.1,1,0.5-0.4
		c-0.1,0.1-0.1,0.3-0.2,0.5c-0.4,0.4,0.7-2,1.1-3c2.5-3.9,6.6-13.8,10.9-19.9c-0.6,0.3,1.5-2.9,2.3-4.2c0.1,0.6,2.3-3.5,3.6-5.1
		l-0.9,0.7c0.7-1,1.3-1.8,1.8-2.6s1-1.5,1.4-2.2c0.9-1.4,1.7-2.6,2.7-3.6c0.8-1,0.8-0.8,0.4-0.2c-0.4,0.6-1,1.6-1.3,2
		c0.6-0.6,1.2-1.5,1.9-2.3c0.7-0.9,1.4-1.8,2.1-2.7c1.4-1.8,2.7-3.6,3.8-4.5c0.1-0.3-0.8,0.3,1.2-2.1c1.8-1.7,5.2-5.2,5-4.8
		c1.3-1.5,1.6-1.9,3.3-3.4c-0.1,0.2-0.7,0.9-1.2,1.4c1.2-1.2,2.3-2.4,3.4-3.5c1-1.1,2.1-2.1,3.2-3.2c0.8-0.5,2.3-1.9,4-3.4
		c1.8-1.5,3.8-3.1,5.4-4.3c1.4-1.8,5.2-3.8,5.2-4.4c-0.1,0.1,0.4-0.2,0.6-0.3c1.1-1,1.9-2,3.5-3.1c0,0-0.1,0.2-0.2,0.3
		c-0.1,0.1-0.2,0.3-0.2,0.3c-0.2,0.5,3.6-2.4,4.8-3c-0.6,0.2,2.1-1.4,2.1-1.6c0,0,0.4-0.4,0.9-0.7c0.4-0.3,0.9-0.6,0.9-0.6
		c3.1-1.9,0.3-0.3,4.1-2.6c2.1-1.3,0.9-0.1,0.1,0.3c1.8-0.9,3.5-1.9,5.3-2.9c-0.4,0.2-0.5,0.2,0-0.1c0.1,0,0.4-0.2,0.9-0.4
		c0.6-0.3,1.2-0.7,1.8-1c0,0-0.1,0.1-0.1,0.1c0.1-0.1,0.3-0.1,0.4-0.2c-0.1,0.1-0.3,0.2-0.4,0.2c0,0.1,0.5-0.2,1.2-0.6
		c0.4-0.2,0.8-0.4,1.1-0.5l-0.4,0.5c1.4-0.8,5.2-2.7,5-2.8c0.8-0.3,1.6-0.7,2.5-1.1c0.9-0.4,1.8-0.8,2.8-1.2c2-0.8,4-1.6,5.9-2.4
		c1-0.4,1.9-0.8,2.8-1.1c0.9-0.3,1.7-0.6,2.5-0.9c0.9-0.4,1.7-0.6,2.3-0.9c-0.8,0.3-0.8,0.4-0.1,0.1c1.9-0.8,4.2-1.6,4.4-1.5
		c1.9-0.6,1.9-0.3,4.9-1.2c0,0,0.1-0.2-0.1-0.2c1.2-0.3,2.4-0.6,3.8-0.9c1.5-0.4,3-0.8,4.6-1.2c1.6-0.5,3.2-0.8,4.8-1.1
		c1.5-0.4,3-0.6,4.4-0.8c-0.5,0.1-1,0.3-1.4,0.5c1-0.2,2-0.5,3-0.6c1.2-0.2,2.4-0.4,3.6-0.6c2.3-0.4,4.6-0.9,6.9-1.2
		c-0.4,0.1-0.3,0.2-1.4,0.4c1.7-0.1,3.5-0.3,5.1-0.5c1.5-0.2,2.9-0.4,3.7-0.5c-2.3,0-0.1,0.1-1.7,0.2c-1.2,0-0.8-0.1,0.3-0.3
		c1-0.2,2.7-0.3,3.8-0.3h0.1c1.7-0.1,2.6-0.1,3.5-0.2c0.4,0,0.9-0.1,1.4-0.1s1.2,0,2,0c2,0.1-1.8,0-1,0.2c0.8,0.4,7.7,0.2,8.4,0.3
		c0.8-0.1,1.9-0.1,1.8-0.2c2.6,0.1,1.2,0.3,3,0.4c0,0,0.5-0.1,1.2-0.1c0.8,0,1.7-0.1,2.7-0.1c1.5,0,2.8,0,3.5,0
		c-0.3,0.1,2.4,0.6,0.1,0.5c2.7,0.3,4.9,0.3,6.8,0.5c1.9,0.1,3.6,0.2,5.3,0.3c1.7,0.3,7,1.3,8.8,1.6c0.8,0.4-1.6-0.3-2-0.2l2.7,0.8
		c-3.6-0.7,0.4,0.4-1.6,0.2c1.5,0.2,3.9,0.8,6.5,1.5c1.3,0.3,2.6,0.7,3.9,1c1.2,0.4,2.4,0.8,3.5,1.1c-2.8-1.3,5.8,1.5,5.7,1.1
		c5,1.7,2.4,1.2,4.2,1.9c1.3,0.4,2.6,0.8,3.8,1.3s2.4,1,3.6,1.5c1.2,0.4,2.3,0.9,3.5,1.4c1.2,0.4,2.3,1,3.4,1.5c0,0,0.1,0.1-0.2,0
		c1.1,0.5,2.2,1,3.5,1.6c0.6,0.3,1.2,0.6,1.9,0.9c0.7,0.3,1.3,0.7,2,1c1.3,0.6,2.7,1.3,3.9,1.9s2.4,1.2,3.4,1.7
		c-0.2,0,0.1,0.2-0.9-0.3c4.1,2.6,1,0.1,5.7,3.1l-1-0.4c3.1,1.5,5.6,3.7,9.1,5.6c0.1,0.1-0.7-0.3-1.2-0.6c0.7,0.5,1.5,1,2.3,1.5
		s1.5,1.1,2.3,1.6c1.5,1.1,3,2.1,4.3,2.9c0.3,0.4-0.2,0.2-1.4-0.6c2.8,2.2,3.3,2,5.8,4.2c0.6,0.5,1.6,1.5,1.6,1.6
		c1.6,0.9,5,4.1,6.4,5.2c0.2,0.4,1.2,1.3,2.6,2.8c6.4,6.3,12.6,13,18.2,20.1c1.4,1.7,2.7,3.6,4.1,5.4l2,2.7l1.9,2.8
		c1.2,1.9,2.5,3.7,3.7,5.6c1.2,1.9,2.3,3.8,3.5,5.7c1.2,2.8-2.3-3.5-1.6-1.7c0.2-0.3,1.7,2.5,4.3,7.3l0.1,0.2
		c1.1,2.1,1.6,3.3,2.7,5.5v-0.1c1.3,2.3,2,5.5,3,6.6l0.5,2c1.3,2.3,1.5,3.9,2.9,6.8l-0.2-0.3c1.2,4.2,3.4,8.4,3.5,10.1
		c0.6,1.8,1.2,3.7,1.7,5.2s0.9,2.7,1.1,3c0.1,0.9-0.2,0.4-0.4-0.1c0.8,3.3,1.8,6.8,2.4,10.3c0.3,1.8,0.7,3.5,1,5.3
		c0.3,1.8,0.5,3.5,0.8,5.3c0.6,3.5,0.8,7,1.2,10.4c0.2,1.7,0.3,3.4,0.4,5c0.1,1.7,0.2,3.3,0.3,4.8c0,0.6-0.1-0.1-0.2-0.5
		c0.1,1,0.1,1.9,0.1,2.9s0,1.9,0,2.9s0,2,0,2.9c0,0.5,0,0.9,0,1.4s-0.1,0.9-0.1,1.4c-0.1,1.9-0.2,3.6-0.3,5.3c0,0.8,0,1.6,0,2.4
		c0,0.7,0,1.5,0,2.2l0.1,2.1c-0.3,1.8-0.5,1.6-0.7,3c0.1,1.5-0.9,7-0.8,7.9c-0.3,0.8-0.1-0.3-0.2-0.3c-0.2,0.9-0.3,1.8-0.4,2.7
		c-0.1,0.9-0.3,1.9-0.4,2.8c-0.3,1.8-0.5,3.7-0.9,5.3l0.1-1.1c-2.1,8.6-5.1,18.2-8.6,27.2s-7.6,17.3-10.8,23.8
		c-2,3.4-1.2,1.3-2.1,2.8c-3.4,6.6-8.3,13.3-13.1,19.7c-1.3,1.5-2.6,3.1-3.8,4.6c-0.7,0.8-1.3,1.5-1.9,2.3c-0.6,0.8-1.3,1.5-1.9,2.2
		c-1.3,1.4-2.5,2.8-3.7,4.2c-1.2,1.3-2.4,2.6-3.5,3.9c-3.6,3.9-6.2,6.3-7.8,8.5c-1.4,1.7-1.9,2.4-1.9,2.4
		c9.7-8.6,18.1-17.5,25.7-27.1c7.6-9.6,14.3-19.9,20.1-31.3c0.9-2,1.9-4.1,2.9-6.3c1-2.2,1.9-4.5,2.8-6.8c1-2.2,1.7-4.5,2.5-6.7
		c0.7-2.1,1.5-4.2,2.1-6.1l1.8-6c0.5-2,1-4.1,1.5-6.1l0.8-3.1l0.6-3.1c0.4-2.1,0.8-4.1,1.2-6.2c0.6-4.2,1.3-8.3,1.7-12.5
		c0.6-4.2,0.8-8.4,1-12.6c0.6-16.9-1-34-5.3-50.6c0.3,1.8-0.3,0-0.8-1.7v-0.4c0,0-0.2-0.7-0.4-1.3c-0.3-0.7-0.5-1.3-0.5-1.3
		c-0.7-2.4-0.1-1.5,0.5,0.6c-3.7-13.1-8.3-24.5-14.3-36.3c-0.3-0.3-1.1-1.8-1.9-3.3s-1.6-2.9-1.9-3c-0.3-0.6,0.1-0.1,0.3,0.2
		c-4.8-7.9-5.2-8.3-9.6-15.5c-1.3-1.8-2.6-3.6-3.9-5.4c-0.7-0.9-1.4-1.7-2.1-2.6l-2.1-2.6c-2.7-3.5-5.8-6.7-8.7-10
		c-1.6-1.6-3.1-3.1-4.7-4.7l-2.3-2.3l-2.5-2.2c-1.6-1.5-3.2-3-4.9-4.4l-5.1-4.2c-6.9-5.4-14.1-10.5-21.7-14.8l-2.8-1.7l-2.9-1.5
		c-2-1-3.9-2.1-5.9-3c-2-0.9-4-1.9-6-2.8c-1-0.5-2-0.9-3-1.3l-3.1-1.3c-32.4-13-67.9-16.4-102.9-9.9c0.2-0.3-2-0.1-4.1,0.2
		c-3.4,0.4-6.9,1.1-1.8-0.6c1.9-0.8,5.4-1.6,9.3-2.4c2-0.3,4-0.6,6.1-0.9c1-0.1,2-0.3,3-0.4c1-0.1,1.9-0.2,2.8-0.3
		c-3.1-0.1-3-0.4-1.1-0.8c0.9-0.2,2.3-0.4,3.9-0.6c0.8-0.1,1.7-0.2,2.6-0.4c0.4,0,0.9-0.1,1.4-0.1c-1.6,0.1-2.5,0.1-3.3,0.1
		c-0.9,0-1.3-0.1-1.7-0.1s-0.9-0.1-2,0c-1.1,0.1-2.8,0.2-5.6,0.8l-0.3-0.6c2.4-0.4,5.1-0.5,7.8-0.7c1.3-0.1,2.7-0.2,4-0.3
		c1.3,0,2.6-0.1,3.8-0.1c-1,0.2,0.1,0.3-1.5,0.5c0,0,0.9-0.1,2.3-0.1c1.4-0.1,3.2-0.2,5-0.3c3.7-0.1,7.3-0.1,7.3-0.1l-1.5,0.4
		c8.4,0.2,18.7,1.4,24.4,2.2c-1.7-0.3-3.2-0.6-4-0.8c-0.9-0.2-0.7-0.5,1.6-0.2c2.6,0.1,7.5,0.4,11.5,1.4c2.1,0.9,17.2,4.7,7.4,3
		c3.1,0.7,5.2,1.1,6.6,1.4c1.5,0.4,2.4,0.6,3.4,0.8c1.8,0.4,3.4,0.7,8.2,2.2c-0.7-0.2-1.7-0.6-2.6-0.9c-1-0.3-2-0.6-2.7-0.8
		c-0.7-0.2-1.2-0.3-1.2-0.3c-0.8-0.8,6,0.2-1.4-2.4c4.5,1.1,5.4,1.1,6.7,1.2c0.6,0.1,1.4,0.2,2.7,0.5c0.7,0.2,1.5,0.4,2.5,0.7
		c1,0.3,2.2,0.7,3.7,1.3c4.6,2.3-1.8,0.4-8.4-1.7c3.3,1.2,6.2,2.5,9.7,3.5c1.1,0.7-0.5,0.3-2.3-0.3c-1.9-0.6-4-1.1-3.9-1
		c3,1.1,3,1,2.9,0.9c0-0.1-0.1-0.3,2.7,0.8c2.5,0.8,4.1,1.5,5.3,2c1.2,0.5,1.8,1,2.5,1.5s1.3,0.9,2.4,1.5c0.5,0.3,1.2,0.6,2,1
		c0.8,0.4,1.7,0.8,2.9,1.3c-1-0.5-2.3-1.2-3.1-1.6c-0.8-0.5-1-0.7,0.2-0.3c0.8,0.4,1.5,0.7,2.1,1c0.6,0.3,1.2,0.6,1.7,0.9
		c1,0.5,1.8,0.9,2.5,1.2c1.3,0.6,2.1,1,2.8,1.2c1.4,0.5,2.3,0.8,6.6,3.2c2.2,1.8,2.6,2.5,3.4,3.5s2,2.1,5.6,4.6l-4.1-2.7
		c1.3,1.1,2.8,2.3,4.3,3.4c1.4,1.2,2.9,2.3,4.3,3.4c1,0.6,1.9,1.3,2.8,1.9c0.9,0.6,1.8,1.3,2.7,2c1.8,1.3,3.5,2.6,5.3,3.9
		c1.7,1.4,3.3,2.7,5,4l2.5,2l2.4,2.1c1.6,1.4,3.2,2.8,4.8,4.3c1.5,1.5,3.1,3,4.6,4.6c0.8,0.8,1.6,1.6,2.4,2.4
		c0.7,0.8,1.5,1.7,2.3,2.5c0.7,0.8,1.5,1.6,2.2,2.5c-1-1.2-2-2.4-2-2.4c-1.3-2,3.9,4.2,4.1,3.9c0,0,0.1,0.2,0.4,0.6
		c0.2,0.3,0.5,0.8,0.8,1.3c0.6,0.9,1.1,1.8,1.1,1.8c0.6,0.3-0.7-1.7-2-3.6c-1.3-1.8-2.5-3.5-1.5-2.7c0.3,0.5,1.2,1.6,1.7,2.2
		l-2.4-3.2c5.6,7,10.5,12.4,13.4,18.6c-2.4-3.6-3.9-5.5-4.7-6.6c-0.9-1-1.3-1.1-1.7-1.2c-0.4-0.1-0.7-0.2-1.7-1.1
		c-0.5-0.5-1.1-1.1-1.9-2.1c-0.4-0.5-0.9-1.1-1.4-1.7c-0.3-0.3-0.5-0.7-0.8-1c-0.3-0.4-0.6-0.7-1-1.1c0.7,0.8,1.3,1.5,1.7,2.1
		c0.4,0.5,0.6,0.9,0.8,1.2c0.3,0.5,0.2,0.5-0.1,0.3c-0.5-0.4-1.7-1.5-1.6-1c2.7,3.9,1.7,1.6,4.7,6c-0.4,0.1-7.5-8.8-4.7-4.5
		c0.9,0.1,3.6,3.9,5.3,5.5c2,3.4-0.4,0.2,0.4,1.7c1.2,1.8,2.2,2.7,3.2,4.4l-1.2-1c1.4,2.3,2.2,3.7,2.7,4.5c0.5,0.9,0.9,1.2,1.2,1.6
		s0.7,0.8,1.4,1.8s1.7,2.5,3.1,5.3c0.3,0,0-0.8-0.7-2.2c-0.7-1.4-2-3.3-3.3-5.5c-0.2-1.4,2.2,1.8,4.6,5.3c2.3,3.6,4.7,7.4,5,6.6
		c5.2,10.7-1.8-2.6,2.2,6.7c0.8,2.7-0.2,1.1-1.6-1.4c-0.7-1.3-1.5-2.7-2.2-4.1c-0.8-1.3-1.5-2.4-1.9-2.9c0,0,0.3,0.6,0.7,1.5
		c0.2,0.4,0.4,1,0.7,1.5c0.2,0.6,0.5,1.2,0.7,1.8c1,2.4,1.9,4.8,1.9,4.8c-1.2-1.4-2.4-3.5-3.5-5.5c-1.2-1.9-2.3-3.7-3.1-4.3
		c1.8,3.4,2.6,4.9,3.4,6.4s1.7,3,3.5,6.4c-4.5-11.8,2.9,4.7,0.9-2.2c0.6,1.3,0.8,2.3,1.1,3.1c0.2,0.8,0.4,1.3,0.6,2
		c0.2,0.6,0.5,1.3,0.9,2.4c0.4,1,1,2.4,1.6,4.4c-1-2.5-1.3-2.5-1.5-2.7c-0.3-0.2-0.6-0.6-2-3.9c2.2,5.3,2.9,7.3,3.7,9.2
		c0.4,1,0.8,2,1.3,3.4c0.5,1.4,1.1,3.3,1.9,6c1.7,3.2-2.4-11.5,2.1,1.7c0.4,1.4,0.5,2,0.4,2.1c-0.1,0-0.3-0.5-0.5-1.4
		c2.1,9.7,0.4-2.2,2.3,3.7c1.1,4.2,1.2,5.8,0.6,4.1c0.5,1.6,0.8,2.5,1,3.1c0.2,0.6,0.4,0.9,0.5,1.1c0.3,0.4,0.5,0.6,1,2.7l-0.3-2
		c0.6,1.8,0.7-3.5,2.5,5.9c1,6.9,0.3,4.8,0,5c0.3,1.3,0.5,2.6,0.6,3.8c0.1,1.2,0.2,2.3,0.3,3.4c0.1,2.2,0.2,4.1,0.2,6
		c0.1-0.4,0.3,0,0.4,1.7c0.6,9.1-0.3,5.3-0.4,8.7c-0.2,6.5,0.1,6.1,0.5,5.9c0.2-0.1,0.4-0.2,0.6,0.7c0.2,0.9,0.2,2.7,0,6.3
		c0,0,0.1-1.1,0.2-2.6c0-0.8,0.1-1.7,0.2-2.7c0-1,0-2.1,0.1-3.1c0-2.1,0.1-4.2,0.1-5.8c0-1.6-0.1-2.6-0.1-2.6c0.4,0.7,1,1,0.8-2.6
		c-0.3-0.2-0.6-1.7-0.9-4c-0.4-2.2-0.8-5.1-1-8c0.2-0.9,0.8,2.9,1.2,5.7c0.2,1.4,0.4,2.6,0.5,2.8c0.1,0.2,0.2-0.5,0.2-2.9
		c0.1,0.9,0.1,1.8,0.2,2.8c0.1,1,0.1,2,0.2,3.1c0.1,2.2,0.3,4.4,0.3,6.5c-0.7-4.3-0.2,13.6-0.9,6.3c0.1,2.3-0.1,4.4-0.2,6.3
		c-0.1,1.9-0.2,3.6-0.3,5.1c-0.3,3.1-0.6,5.7-0.9,8.3c-0.7,5.1-1.3,10-2.8,18.4c-0.1-0.8,0.2-3.9,0.7-7.9c0.2-2,0.4-4.2,0.6-6.5
		c0.1-1.1,0.3-2.3,0.4-3.4c0.1-1.1,0.2-2.3,0.4-3.4l0.5-0.7c0.6-11-1.2,8.5-1.8,6.4c-0.3,3.4-0.6,7-1.4,10.6
		c-0.4,1.8-0.7,3.7-1.1,5.6c-0.5,1.9-1,3.7-1.5,5.7c-0.3,1-0.5,1.9-0.8,2.9s-0.6,1.9-0.9,2.9c-0.6,1.9-1.2,3.9-1.9,5.8
		c-0.7,1.9-1.4,3.9-2.1,5.8l-1,2.9c-0.3,1-0.7,1.9-1.1,2.9c1.4-2.6,0.4,0.5,0.4,1.3c0.6-1.6,1-2.7,1.4-3.5c0.3-0.9,0.5-1.5,0.7-2
		c0.4-1.1,0.8-2,1.8-4.2c0.1,1-1.3,4.8-1.8,6.9c-0.1,1.9,1.7-4.8,2.8-6.9c-0.9,3.1-1.3,4.5-1.6,5.6c-0.3,1.1-0.4,1.9-1,3.7
		c-1.7,3.1-1.8,2.6-3.2,4.9c-3.2,7.2-4.7,10.4-5.9,13.3c-0.6,1.4-1.2,2.8-2.1,4.5c-0.9,1.7-2,3.6-3.7,6.4c3.3-5.4-1,0.9,0.9-2.4
		l-1.2,2c2.5-4.9,5.9-11.5,8.2-16.9c1.1-2.7,2.1-5,2.6-6.6c0.5-1.6,0.5-2.5,0.1-2.2c-0.8,2.1-1.6,4-2.4,5.9
		c-0.8,1.9-1.5,3.7-2.3,5.6c-1.8,3.7-3.5,7.7-6.3,12.4V304c-4.1,6.8,0.3,0.1-0.4,1.8c-0.5,1-1,1.9-1.5,2.7s-1,1.5-1.5,2.1
		c-0.9,1.3-1.8,2.3-2.6,3.3c-1.5,2-3,3.6-4.4,6.3c0,0,1.4-1.8,2.7-3.6c0.7-0.9,1.3-1.9,1.8-2.5c0.5-0.7,0.8-1.2,0.8-1.2
		c-3.3,6,1.2-1.6,1,0.2c-0.8,1.3-1.6,2.8-2.6,4.2c-1,1.5-2.1,3-3.2,4.6c-0.6,0.8-1.2,1.6-1.8,2.5c-0.6,0.8-1.3,1.6-1.9,2.5
		c-1.3,1.7-2.7,3.4-4.1,5.1c-1.5,1.7-3,3.4-4.5,5.1c-0.8,0.9-1.5,1.7-2.3,2.6l-2.4,2.5c-1.6,1.6-3.2,3.3-4.8,4.9
		c-1.6,1.6-3.2,3.1-4.8,4.6c4-3,5.1-3.9,9.7-8.6c-1.3,2.9-3.3,4.7-0.3,3.1c0,0,1.4-1.4,2.9-2.8c0.7-0.7,1.4-1.4,2-2
		c0.5-0.6,0.8-0.9,0.8-0.9l0.8,0.6c-0.4,0.4-0.7,0.8-1.1,1.2c-0.4,0.4-0.8,0.8-1.2,1.1c-0.8,0.7-1.5,1.5-2.3,2.1
		c-0.1,0.3-0.7,1-1.5,1.9c-0.9,0.9-1.9,2-3.1,2.9c-2.3,2-4.5,3.9-4.5,4.3l5-4.7c2.9-1.9-3.2,3.5-6.7,6.9c1.9-1.3,4.7-3.8,7.9-6.9
		c3-3.2,6.6-6.8,9.8-10.6c-0.7,0.3,5.2-7.5-1.2-0.5c-0.1-0.2,0.7-1.4,1.9-2.9c0.6-0.8,1.3-1.5,1.9-2.4c0.6-0.8,1.3-1.7,1.9-2.4
		c-1.1,1.6,5-4.5,0.8,1.3c2-2.7,2.6-3.5,3.2-4.2c0.7-0.8,1.5-1.7,4.2-5.6c-0.1,0.3,0.4-0.4,1.3-1.5c0.4-0.6,1-1.3,1.5-2.1
		s1.1-1.6,1.7-2.5c1.2-1.7,2.4-3.4,3.3-4.6c0.9-1.2,1.5-1.9,1.5-1.6c0.6-1.4,0.3-1.5,0.5-2.5c0.1-0.5,0.4-1.2,0.9-2.3
		c0.5-1.2,1.5-2.8,2.7-5.2c-0.8,1.1-2.9,4.1-4.2,6.1c-1.4,1.9-2,2.7-0.3-1l-2.3,4.8c-4.4,6.1,0.6-2.1-5.1,6c1.6-2.4,4.6-7.4,5.6-8.4
		c-1.2,0.7,0.5-2.5,2.4-6c1.8-3.6,3.7-7.5,3.4-7.9c0.3-0.4,0.7-0.9,1-1.5c0.3-0.6,0.7-1.2,1-1.9c0.7-1.5,1.6-3.3,2.7-5.8
		c0,0.8,1.6-1.7,0.1,2.1c-1.6,3.1-2.4,5.5-4.5,8.7c0.5-0.3,1.2-1.2,2.1-2.6c0.7-1.4,1.6-3.1,2.5-5.1c0.4-1,0.9-2,1.4-3.1
		c0.5-1.1,0.9-2.2,1.3-3.3c0.9-2.2,1.8-4.5,2.7-6.5c-0.5,1.1-0.8,1.4-0.1-1c0.5-1.3,1.1-2.9,1.8-4.7c0.3-0.9,0.7-1.7,1-2.6
		c0.3-0.9,0.6-1.7,0.9-2.5c1.1-3.1,1.9-5.1,1.7-3.3c0,0,0.1-0.4,0.3-1.1s0.5-1.8,0.8-3c0.6-2.5,1.5-5.9,2.2-9.3c0.3-1.7,0.6-3.4,1-5
		c0.3-1.6,0.6-3.1,0.8-4.4c0.4-2.6,0.6-4.3,0.6-4.3c0.3-0.1-0.4,3.9-0.6,5.6c0,0,0.6-3.8,1.1-7.7c0.3-1.9,0.4-3.8,0.6-5.3
		c0.1-1.4,0.2-2.4,0.2-2.4c0.8-3.6-0.1,5.3,0.1,6.9c0,0,0.1-0.7,0.2-1.7c0.1-1,0.2-2.4,0.4-3.8c0.1-1.4,0.3-2.8,0.4-3.8
		c0.1-0.5,0.1-1,0.1-1.3s0-0.5,0-0.5s0.1,0.4,0.2,0.8c0.1,0.4,0.1,0.8,0.1,0.8c0-1.4,0.1-5.3,0.3-9.3c0.1-4,0.2-8,0.5-9.6
		C476.6,199.3,476.3,197,476.1,195.1z M355,372.3c0.3-0.1,0.5-0.1-0.7,0.5c0,0,0,0,0,0C354.5,372.6,354.7,372.5,355,372.3z
		 M351.6,374.7c0.1,0,0.2-0.1,0.3-0.1l0.3,0.1c3.3-1.7,4-2.4,5.2-3.2c2.6-1.1,2.8-1.4,5.4-2.6c-1.2,0.7-2.3,1.4-3.3,2
		c-1,0.6-1.9,1.2-2.7,1.7c1-0.5,2-1,3-1.5s1.9-1.1,2.8-1.6c1-0.6,2-1.1,2.9-1.6c-0.1,0.1-0.2,0.1-0.3,0.2c-1.3,0.8-2.4,1.5-3.5,2.2
		c-0.5,0.3-1.1,0.7-1.6,1s-1.1,0.6-1.7,1c-1.2,0.6-2.4,1.3-3.8,2.1C351.5,375.7,350.9,375.4,351.6,374.7z M339.5,379.9
		c0.1-0.1,0.2-0.1,0.3-0.2c0,0,0.1,0,0.1,0c0.1,0,0.3-0.1,0.4-0.1C340,379.6,339.7,379.7,339.5,379.9z M342.6,377.1
		c-1.1,0.4-2.2,0.8-3.3,1.2C340.5,377.8,341.9,377.3,342.6,377.1z M325.3,383.9l0.3,0.2c2.7-0.8,5.8-1.7,9.2-2.7
		c0.6-0.2,1.2-0.4,1.9-0.6c-0.4,0.4-0.9,0.8-1.8,1.3c-2.5,0.5-6.1,1.5-9.1,2.1c-1,0.2-1.9,0.3-2.7,0.4
		C323.9,384.3,324.7,384.1,325.3,383.9z M318.7,385.8c0.8-0.2,1.6-0.4,2.3-0.6l0.1,0.2c-2.6,0.7-3.5,0.9-3.8,0.8
		C317.7,386,318.2,385.9,318.7,385.8z M300.5,389.1c1.7-0.3,3.5-0.5,5.3-0.8c0.9-0.1,1.8-0.3,2.7-0.4c0.9-0.2,1.8-0.4,2.7-0.5
		c1-0.3,2.2-0.5,3.5-0.8c0.4-0.1,0.9-0.1,1.3-0.2c-0.5,0.6-1.1,1.2-8.1,2.7c1.1-1.4-6.2,0.4-8.3,0.1
		C299.8,389.1,300.1,389.1,300.5,389.1z M292.3,389.7c0.4,0,0.9,0,1.4,0c-1.8,0.4-3.7,0.7-6.4,0.7c-0.7-0.1-1.1-0.2-1.3-0.3
		C288.1,390,290.2,389.9,292.3,389.7z M264.1,390.3c0.2-0.1,0.6-0.2,0.9-0.3c2.2,0.1,4.3,0.2,6.5,0.3c-0.1,0.1-0.6,0.3-2.3,0.3
		c-2.4,0.1-3.8,0.1-4.5,0C264,390.5,263.9,390.4,264.1,390.3z M235.6,385.8c0.2,0,0.5,0,0.6,0c1.2,0.3,2.4,0.5,3.7,0.7
		c1.6,0.3,3.2,0.6,4.8,0.9c0.8,0.2,1.5,0.3,2.3,0.5c0.7,0.1,1.5,0.3,2.2,0.4c1.6,0.1,7.4,0.8,4.8,0.2c2.3,0.3,1.4,0.6,3.8,0.6
		c0,0-0.5,0-1.1,0c-0.5,0-1.1,0-1.1,0c2.5,0.2,4.9,0.5,7.3,0.7c-0.5,0-1,0-1.5,0c-1.9,0-3.9-0.1-3.9-0.1l5.2,1
		c-3-0.2-6.6-0.4-10.4-1c-1.9-0.3-3.9-0.5-5.9-0.9c-2-0.4-4-0.8-6.1-1.2c-0.7-0.2-1.4-0.4-2-0.5c-0.6-0.2-1-0.3-1.4-0.5
		c-0.8-0.3-1.3-0.4-1.5-0.6C234.9,385.8,235.2,385.7,235.6,385.8z M223.1,382.3c1.7,0.5,3.3,1,4.8,1.4c0.1,0,0.3,0.1,0.4,0.1
		c0.9,0.2,1.8,0.4,2.7,0.6l0.1,0.3c0.5,0.1,1,0.2,1.5,0.3c-0.1,0-0.4,0-0.7,0c-0.8-0.1-2.1-0.4-3.4-0.7c-2.7-0.7-5.6-1.5-5.5-1.1
		C221,382.3,221.4,382.1,223.1,382.3z M210.5,377.2c1.8,0.7,2.8,1.4,3.5,1.7c1.5,0.6,3,1.2,4.5,1.7c1.2,0.5,2.4,1,3.6,1.4
		c-6.4-1.8-12.2-4.2-16-6.2C207.5,376.3,208.8,376.7,210.5,377.2z M199.5,373l-0.5-0.1c-0.9-0.4-1.7-0.8-2.3-1.1
		c-0.6-0.3-1.1-0.6-1.4-0.8c-0.7-0.4-0.9-0.6-0.9-0.6C196.1,371.3,197.9,372.3,199.5,373z M184.2,364.7c-0.8-0.4-1.8-0.9-3.1-1.6
		c-1-0.7-1.5-1.1-1.9-1.4C180.8,362.8,182.5,363.8,184.2,364.7z M103.1,262.6c0.2,0.6,0.5,1.4,0.7,2.1c0,0-0.1,0-0.1,0
		c-0.3-0.6-0.6-1.3-0.9-2.2l-0.3-2C102.5,260.8,102.8,261.6,103.1,262.6z M100.9,256.3c0,0.3,0.1,0.6,0.2,1
		c-0.2-0.7-0.4-1.4-0.6-2.2c-0.3-0.8-0.5-1.8-0.7-2.7C100.2,253.8,100.6,255.1,100.9,256.3z M96.8,238l-0.3-1.4l-0.3-1.7
		c-0.1-0.4-0.1-0.7-0.2-1c0.3,0.9,0.5,2.4,0.5,1.7C96.5,236.3,96.7,237.2,96.8,238z M125.9,103c-0.8,1.2-1.5,2.3-2,3.2
		c0.4-1-1.7,2.3-2.5,3.4c-0.9,2.1-2.6,4.8-4.3,7.6c-1.6,2.9-3.3,5.9-4.4,8.6v-0.2c-3.8,7.8-7.2,16.3-10,25.1s-4.8,17.9-6.2,26.9
		c-1.6,10.1-3,21.6-2.5,32.9c0.1,2.1,0.2,0.4,0.3,2.1c0.1,2.9-0.2,0-0.2,1.1c0.3,2.8,0.4,6,0.7,9.4c0.1,1.7,0.3,3.5,0.4,5.2
		c0.1,0.8,0.2,1.6,0.3,2.5c0.1,0.6,0.1,1.1,0.2,1.5c-0.1-0.3-0.1-0.5-0.2-0.8c-0.2-1.1-0.4-2.3-0.7-3.4c-0.2-1.1-0.3-2.2-0.5-3.2
		c-0.4-2.1-0.7-4-1.2-5.7c0-1.6-0.1-3.8-0.3-6.4c-0.2-2.6-0.2-5.5-0.3-8.7c-0.2-6.3,0.2-13.3,1-19.3c0.3-0.9,0.9-4.5,1.4-7
		c0.5-2.3,0.7-3.6,0.6-1.1c0.1-1.1,0.3-3,0.6-4.6c0.3-2.3,0.6-4.1,0.1-2.9c0,1-0.4,2.1-0.8,4.3l-0.3-2c0.7-2.8,1.1-5.9,1.8-8.9
		c0.6-3,1.2-6,2.2-8.6c0.3-0.4,0.2,0,0,0.9c-0.2,0.8-0.5,2-0.7,3.2c-0.5,2.3-0.9,4.4-0.1,2.7c0.1-1.4,0.4-3.7,1.1-6.6
		c0.7-2.8,1.5-6.2,2.6-9.6c0.6-1.7,1.1-3.4,1.7-5c0.6-1.6,1.2-3.2,1.8-4.6c0.6-1.4,1.2-2.8,1.7-4c0.6-1.2,1.1-2.1,1.5-2.9
		c1-2.1,1.8-3.2,2.4-4c0.6-0.8,1.1-1.2,1.6-2.1l3.6-7c0.7-0.7,1-0.6,2.1-1.7c2.1-3.2,3.1-5.6,4.4-7.7
		C127,99.7,127.1,100.4,125.9,103z M197.5,43.2c0.9-0.5,1.8-1.1,2.4-1.2C199.3,42.3,198.4,42.7,197.5,43.2z M237.5,26.2
		c0.8-0.2,1.5-0.3,2.1-0.4c0.6-0.1,1-0.1,1.4-0.2c0.7-0.1,1.1,0,1.2,0c0.1,0,0.1,0.1,0.1,0.1c-5.4,1.5-12.9,3.2-19.1,5.6l0.4-0.3
		c-1.4,0.4-2.4,0.9-3.4,1.2c-1,0.3-1.9,0.6-2.8,0.9c-0.9,0.2-1.9,0.5-3.1,0.9c-1.2,0.4-2.5,0.9-4.2,1.5c0,0.2-2.6,1.1-1.5,1
		c-1.1,0.6-2.2,0.9-3.4,1.3c-1.2,0.4-2.5,0.9-4.1,1.7c-0.2,0,0.1,0.2-0.6,0.4c-4.2,2.1-3.8,1.9-3.7,1.7c0.1-0.2-0.1-0.3-5.4,2.3
		l-2.7,1.4l-2.6,1.6c-1.8,1.1-3.5,2.1-5.3,3.2l-5.1,3.5l-2.6,1.7l-2.5,1.8c-1.6,1.3-3.3,2.5-4.9,3.7c-1.6,1.3-3.1,2.6-4.7,3.9
		c-3.2,2.4-6,5.2-9,7.8c0.7-0.6,1.2-0.8,0,0.3c-1.5,0.6-3.7,3.8-5.8,5.6c0.1-0.2,1-1.2,1.5-1.7c-1.3,1.2-2.6,2.4-3.7,3.6
		c-1.1,1.3-2.2,2.5-3.3,3.7c-1.1,1.3-2.2,2.4-3.2,3.7c-0.9,1.2-1.9,2.3-3,3.5c-0.8,1.1-1.6,2.1-2.4,3.2c-1,1.4-2.1,2.9-3.2,4.3
		c-0.6,0.8-1.2,1.6-1.8,2.4c0-0.1,0-0.2-0.1-0.1c1-1.4,2.2-2.7,3.2-4.2c1.1-1.4,2.1-2.9,3.2-4.3c1.1-1.4,2.2-2.8,3.3-4.1
		c1.1-1.3,2.1-2.6,3.3-3.6c-3.1,2.9,0.3-1.2-0.9-0.6c0,0-0.3,0.3-0.8,0.8s-1.1,1.2-1.7,1.9c-1.2,1.4-2.4,2.8-2.4,2.8
		c0.9-1.2,1.9-2.5,2.9-3.8c1-1.4,2.2-2.7,3.4-4.1c1.2-1.3,2.3-2.7,3.5-3.9c1.2-1.2,2.3-2.3,3.4-3.2c-0.2,0.7-0.3,1,1.9-0.8
		c-1.6,1.2,0.1-0.7,1.4-2.3c0.7-0.7,1.2-1.4,1.2-1.5c0-0.1-0.7,0.2-2.3,1.6c-1.1,1.2-2.1,2.3-3.2,3.5c-1.1,1.2-2.4,2.4-3.8,3.9
		c-1.2,0.7-0.7-0.1,0.3-1.5c1.1-1.4,2.8-3.2,3.9-4.7c0.8-0.8,1.7-1.9,2.8-3c1.1-1.1,2.4-2.3,3.7-3.6c1.3-1.2,2.6-2.6,3.9-3.7
		c1.3-1.2,2.6-2.3,3.8-3.4c3.1-2.4,4.6-2.3,9.6-6.6c-3.6,2.2-2.2,0.8,0.3-1.5c2.6-2.1,6.4-5,7.1-5.9c5.7-3.1,8.7-6,13.6-7.8
		c-0.6,0.4-1.5,0.9-2.7,1.6c-0.6,0.3-1.2,0.7-1.9,1.1c-0.7,0.4-1.3,0.8-2,1.2c-2.6,1.7-5.3,3.4-6.2,4.3c0,0.7,2.6,0-5.4,5.6
		c4.9-3.1,6.3-4.2,7-4.8c0.7-0.6,0.7-0.9,3-2.4l-3.4,2.1c1.5-1.1-1.7,0.3,1.3-1.5c1.5-0.8,2.8-1.6,4.1-2.3c0.6-0.3,1.2-0.7,1.8-1
		c0.6-0.3,1.1-0.5,1.6-0.8c2.1-1,3.8-1.8,5.4-2.5c1.6-0.7,3.1-1.2,4.8-1.8c1.6-0.6,3.4-1.2,5.6-2c-1,0.3-0.6-0.2,0.3-0.7
		c0.9-0.5,2.4-1.2,3.4-1.7c8.4-2.9,0.3,1.1,5.7-0.1c2.7-1.5,8.5-3.3,6.4-3c1.7-0.6,2.1-0.6,2.4-0.7c0.3,0,0.5,0,1.7-0.2
		c1-0.5,2.1-1.1,3.6-1.6c0.7-0.3,1.5-0.6,2.5-0.9c0.9-0.3,2-0.5,3.2-0.8c-0.2,0.2-0.4,0.4-1.2,0.7c-0.8,0.3-2.1,0.6-4.3,1.3
		c2.5-0.7,4.3-0.8,5.2-0.7c0.9,0.1,0.9,0.4-0.2,0.9c0,0-0.5,0.1-1.3,0.3c-0.8,0.1-1.8,0.4-2.8,0.7c-2,0.5-4.1,1-4.1,1
		c-1.8,0.8,0.1,0.3,2.5-0.3c1.2-0.3,2.4-0.7,3.4-0.9s1.7-0.3,1.6-0.1c-1.8,0.5-3.4,0.9-4.8,1.3c-1.4,0.4-2.7,0.7-3.8,1.1
		c1.2-0.1,3.5-0.7,6.1-1.5C232.6,27.5,235.4,26.7,237.5,26.2z"/>
	<path class="st0" d="M340.5,28.4c0.8,0.2,1.3,0.4,1.3,0.4C341.3,28.6,340.9,28.5,340.5,28.4z"/>
	<path class="st0" d="M428.9,89.2c0.4,0.5,0.7,0.8,0.7,0.8c-0.8-1-1.6-1.9-2.4-2.8c0.1,0.1,0.1,0.2,0.2,0.2
		C427.9,88.1,428.5,88.7,428.9,89.2z"/>
	<path class="st0" d="M460.9,155.1c0.1,0.4,0.2,0.8,0.3,1.1C461.1,155.8,461,155.5,460.9,155.1z"/>
	<path class="st0" d="M339.5,26.4c-0.8-0.3-1.6-0.6-2.5-0.8C337.8,25.9,338.7,26.2,339.5,26.4z"/>
	<path class="st0" d="M186.2,43.1c-1.2,0.6-2.1,1.2-2.8,1.7L186.2,43.1z"/>
	<path class="st0" d="M396.2,346.9c1.2-0.8,1.7-1.3,2.1-1.8c-0.9,0.7-1.4,1-1.5,1.1C397,346,398,345.3,396.2,346.9z"/>
	<path class="st0" d="M396.7,346.2C396.6,346.3,396.6,346.3,396.7,346.2L396.7,346.2z"/>
	<path class="st0" d="M220.7,377.8c0.2,0.1,0.6,0.1,1.1,0.3L220.7,377.8z"/>
	<path class="st0" d="M208.2,372.9c0.2,0,0.3,0.1,0.4,0.1C208.4,372.9,208.3,372.9,208.2,372.9z"/>
	<path class="st0" d="M112.3,133.4c0-0.1,0-0.3,0.4-1.2c-0.3,0.5-0.4,1.1-0.9,2.3C111.9,134.1,112.1,133.8,112.3,133.4z"/>
	<path class="st0" d="M254.2,386c-0.2-0.1-0.7-0.1-1.7-0.2C253.2,385.9,253.7,386,254.2,386z"/>
	<path class="st0" d="M395.4,65.5C395.4,65.5,395.4,65.5,395.4,65.5C395.4,65.5,395.5,65.5,395.4,65.5z"/>
	<path class="st0" d="M246.2,27.1c-0.2,0.1-0.4,0.1-0.7,0.2C245.6,27.3,245.8,27.2,246.2,27.1z"/>
	<path class="st0" d="M179.3,54c0.1,0,0.1-0.1,0.3-0.1C179.5,53.9,179.4,53.9,179.3,54z"/>
	<path class="st0" d="M134.4,91.5c0.1-0.1,0.2-0.2,0.2-0.3c0.3-0.3,0.5-0.7,0.8-1C135,90.7,134.8,91,134.4,91.5z"/>
	<path class="st0" d="M193.5,45.4c-0.3,0.2-0.6,0.3-0.9,0.5c0.5-0.2,1.5-0.8,2.7-1.4c0,0,0,0,0,0C194.6,44.8,194,45.1,193.5,45.4z"
		/>
	<path class="st0" d="M379.6,359.4c-0.2,0.1-0.3,0.3-0.5,0.4C379.3,359.6,379.5,359.4,379.6,359.4z"/>
	<path class="st0" d="M282.2,388.2c-1.2,0-2.4,0-3.1,0.1C280,388.3,281,388.3,282.2,388.2z"/>
	<path class="st0" d="M318.2,383.6c0.6-0.1,1.2-0.3,1.9-0.6C319.2,383.3,318.6,383.5,318.2,383.6z"/>
	<path class="st0" d="M364.6,367.2l-0.6,0.6C364.2,367.5,364.4,367.3,364.6,367.2z"/>
	<path class="st0" d="M387.5,353.3c0.4-0.3,0.9-0.7,1.2-1C388.8,352.3,388.3,352.7,387.5,353.3z"/>
	<path class="st0" d="M317.6,384C317.5,384,317.5,384,317.6,384c0,0,0.1,0.1,0.2,0.1C318.1,384,318.1,383.9,317.6,384z"/>
	<path class="st0" d="M318.2,383.6c-0.3,0.1-0.6,0.1-0.9,0.1c-0.9,0.1-1.8,0.2-2.9,0.5c-0.7,0.1,1.1-0.4-0.7-0.1
		c-1.5,0.4,1,0.3,3.8-0.2C317.4,383.9,317.6,383.8,318.2,383.6z"/>
	<path class="st0" d="M322.6,382.3c-0.7,0.1-1.6,0.5-2.5,0.7c0.2,0,1.2-0.1,1.3-0.2C321.8,382.6,321.7,382.6,322.6,382.3z"/>
	<path class="st0" d="M308.7,385c-2.5,0.4-6.7,1.1-7,1.3L308.7,385z"/>
	<path class="st0" d="M283.1,387.1c0.5-0.1,1.2-0.2,1-0.2C281.9,387,281.5,387,283.1,387.1z"/>
	<path class="st0" d="M278.9,387.3c0.7,0.1,1.5,0.2,2.9,0.2C282.2,387.2,279.6,387.3,278.9,387.3z"/>
	<path class="st0" d="M278.9,387.3c-0.1,0-0.1,0-0.2,0C278.7,387.3,278.7,387.3,278.9,387.3z"/>
	<path class="st0" d="M239.8,382.9c0.8,0.1,1.5,0.2,2,0.3c0.7-0.1-2-0.3-3.4-0.6C238.8,382.6,239.3,382.8,239.8,382.9z"/>
	<path class="st0" d="M238.4,382.5c-0.2-0.1-0.4-0.1-0.5-0.2C238,382.4,238.2,382.5,238.4,382.5z"/>
	<path class="st0" d="M222.1,378.2c0.7,0.2,0.9,0.3,1.5,0.5l-0.5-0.4C222.2,378.1,221.1,377.8,222.1,378.2z"/>
	<polygon class="st0" points="130,101.8 131.1,100.2 130,101.5 	"/>
	<path class="st0" d="M258.4,25.8c-0.4,0,0.2-0.4-1.8,0C259,25.5,256.5,26,258.4,25.8z"/>
	<polygon class="st0" points="336.7,33.2 336.4,32.7 336.1,33 	"/>
</g></g><g class="containerBody" transform="scale(0.47749844227417976) translate(350.159269550672,269.4183451378575)" ><g class="sampleIconBox" transform="scale(1) translate(0,0)"><g class="sampleIcons_1" transform="scale(3.368695357194609) translate(67.4372645557256,68.23443050911413)" fill="#000000"><path d="M0.69-0.58L0.69-0.58L0.69-0.58Q0.69-0.86 1.02-2.78L1.02-2.78L1.02-2.78Q1.95-8.56 3.15-14.76L3.15-14.76L3.15-14.76Q4.34-20.95 6.24-30.14L6.24-30.14L6.24-30.14Q8.14-39.32 8.72-42.19L8.72-42.19L8.72-42.19Q12.23-42.35 18.39-42.35L18.39-42.35L18.39-42.35Q24.12-42.35 28.41-42.19L28.41-42.19L28.41-42.19Q28.69-42.19 28.93-41.99L28.93-41.99L28.93-41.99Q29.18-41.78 29.23-41.48L29.23-41.48L29.23-41.48Q30.01-37.56 31.86-28.67L31.86-28.67L31.86-28.67Q33.71-19.78 35.02-12.95L35.02-12.95L35.02-12.95Q36.33-6.12 37.27 0L37.27 0L37.27 0Q33.94 0.16 31.15 0.16L31.15 0.16L31.15 0.16Q26.67 0.16 24.26 0L24.26 0L24.26 0Q23.96-0.02 23.72-0.22L23.72-0.22L23.72-0.22Q23.48-0.42 23.43-0.70L23.43-0.70L23.43-0.70Q22.64-4.75 22.15-7.73L22.15-7.73L15.63-7.73L15.63-7.73Q15.06-3.97 14.27 0L14.27 0L14.27 0Q10.90 0.16 8.46 0.16L8.46 0.16L8.46 0.16Q5.54 0.16 1.27 0L1.27 0L1.27 0Q1.00 0 0.84-0.17L0.84-0.17L0.84-0.17Q0.69-0.33 0.69-0.58ZM16.80-16.88L16.80-16.88L20.76-16.88L20.76-16.88Q20.34-19.76 19.62-25.09L19.62-25.09L19.62-25.09Q18.90-30.43 18.58-32.64L18.58-32.64L18.58-32.64Q18.23-29.78 17.65-24.42L17.65-24.42L17.65-24.42Q17.07-19.07 16.80-16.88ZM39.80-21.09L39.80-21.09L39.80-21.09Q39.80-30.94 40.08-42.19L40.08-42.19L40.08-42.19Q43.42-42.35 46.23-42.35L46.23-42.35L46.23-42.35Q49.13-42.35 53.44-42.19L53.44-42.19L53.44-42.19Q53.72-42.19 53.93-41.98L53.93-41.98L53.93-41.98Q54.14-41.77 54.14-41.48L54.14-41.48L54.14-41.48Q54.42-28.27 54.42-21.09L54.42-21.09L54.42-21.09Q54.42-11.25 54.14 0L54.14 0L54.14 0Q50.80 0.16 47.99 0.16L47.99 0.16L47.99 0.16Q45.09 0.16 40.78 0L40.78 0L40.78 0Q40.50 0 40.29-0.21L40.29-0.21L40.29-0.21Q40.08-0.42 40.08-0.70L40.08-0.70L40.08-0.70Q39.80-13.92 39.80-21.09Z"/></g></g><g class="sampleTexts_1" transform="scale(1) translate(0,-0.000006103515630684342)"><g class="logo--name svgLogoName_1 logoNameBox" transform="scale(1) translate(92.05999946594238,321.50000152587893)" fill="#000000"><path d="M11.70 0L3.40 0L3.40 0Q2.80 0 2.40-0.50L2.40-0.50L2.40-0.50Q2-1 2.10-1.60L2.10-1.60L13.60-70.60L13.60-70.60Q13.60-71.10 14.05-71.45L14.05-71.45L14.05-71.45Q14.50-71.80 15-71.80L15-71.80L19.70-71.80L19.90-71.80L24.60-71.80L24.60-71.80Q25.80-71.80 26-70.60L26-70.60L37.50-1.60L37.50-1.60Q37.70-1 37.25-0.50L37.25-0.50L37.25-0.50Q36.80 0 36.20 0L36.20 0L27.90 0L27.90 0Q26.70 0 26.50-1.30L26.50-1.30L25-12.40L14.60-12.40L13.10-1.30L13.10-1.30Q12.70 0 11.70 0L11.70 0ZM19.80-49.10L16.20-23.20L23.40-23.20L19.80-49.10ZM44.40-58.40L44.40-58.40L44.40-58.40Q44.40-61.20 45.45-63.65L45.45-63.65L45.45-63.65Q46.50-66.10 48.35-67.95L48.35-67.95L48.35-67.95Q50.20-69.80 52.65-70.85L52.65-70.85L52.65-70.85Q55.10-71.90 57.90-71.90L57.90-71.90L59.60-71.90L59.60-71.90Q62.40-71.90 64.85-70.85L64.85-70.85L64.85-70.85Q67.30-69.80 69.10-67.95L69.10-67.95L69.10-67.95Q70.90-66.10 71.95-63.65L71.95-63.65L71.95-63.65Q73-61.20 73-58.40L73-58.40L73-49.60L73-49.60Q73-49.10 72.60-48.65L72.60-48.65L72.60-48.65Q72.20-48.20 71.60-48.20L71.60-48.20L63.60-48.20L63.60-48.20Q63-48.20 62.60-48.65L62.60-48.65L62.60-48.65Q62.20-49.10 62.20-49.60L62.20-49.60L62.20-58.40L62.20-58.40Q62.20-59.50 61.45-60.25L61.45-60.25L61.45-60.25Q60.70-61 59.60-61L59.60-61L57.90-61L57.90-61Q56.80-61 56.05-60.25L56.05-60.25L56.05-60.25Q55.30-59.50 55.30-58.40L55.30-58.40L55.30-13.40L55.30-13.40Q55.30-12.30 56.05-11.55L56.05-11.55L56.05-11.55Q56.80-10.80 57.90-10.80L57.90-10.80L59.60-10.80L59.60-10.80Q60.70-10.80 61.45-11.55L61.45-11.55L61.45-11.55Q62.20-12.30 62.20-13.40L62.20-13.40L62.20-22.70L62.20-22.70Q62.20-24.10 63.60-24.10L63.60-24.10L71.60-24.10L71.60-24.10Q73-24.10 73-22.70L73-22.70L73-13.40L73-13.40Q73-10.60 71.95-8.15L71.95-8.15L71.95-8.15Q70.90-5.70 69.10-3.90L69.10-3.90L69.10-3.90Q67.30-2.10 64.85-1.05L64.85-1.05L64.85-1.05Q62.40 0 59.60 0L59.60 0L57.90 0L57.90 0Q55.10 0 52.65-1.05L52.65-1.05L52.65-1.05Q50.20-2.10 48.35-3.90L48.35-3.90L48.35-3.90Q46.50-5.70 45.45-8.15L45.45-8.15L45.45-8.15Q44.40-10.60 44.40-13.40L44.40-13.40L44.40-58.40ZM91.20-71.70L91.20-71.70L91.20-71.70Q91.80-71.70 92.20-71.25L92.20-71.25L92.20-71.25Q92.60-70.80 92.60-70.30L92.60-70.30L92.60-13.30L92.60-13.30Q92.60-12.20 93.35-11.50L93.35-11.50L93.35-11.50Q94.10-10.80 95.20-10.80L95.20-10.80L96.90-10.80L96.90-10.80Q98-10.80 98.75-11.50L98.75-11.50L98.75-11.50Q99.50-12.20 99.50-13.30L99.50-13.30L99.50-70.30L99.50-70.30Q99.50-70.80 99.90-71.25L99.90-71.25L99.90-71.25Q100.30-71.70 100.90-71.70L100.90-71.70L108.90-71.70L108.90-71.70Q109.50-71.70 109.90-71.25L109.90-71.25L109.90-71.25Q110.30-70.80 110.30-70.30L110.30-70.30L110.30-13.30L110.30-13.30Q110.30-10.50 109.25-8.05L109.25-8.05L109.25-8.05Q108.20-5.60 106.40-3.80L106.40-3.80L106.40-3.80Q104.60-2 102.15-0.95L102.15-0.95L102.15-0.95Q99.70 0.10 96.90 0.10L96.90 0.10L95.20 0.10L95.20 0.10Q92.40 0.10 89.95-0.95L89.95-0.95L89.95-0.95Q87.50-2 85.65-3.80L85.65-3.80L85.65-3.80Q83.80-5.60 82.75-8.05L82.75-8.05L82.75-8.05Q81.70-10.50 81.70-13.30L81.70-13.30L81.70-70.30L81.70-70.30Q81.70-70.80 82.15-71.25L82.15-71.25L82.15-71.25Q82.60-71.70 83.10-71.70L83.10-71.70L91.20-71.70ZM141.90-9.10L135.90-9.10L135.80-9.10L129.80-36.50L129.80-1.50L129.80-1.50Q129.80 0 128.40 0L128.40 0L120.40 0L120.40 0Q119.00 0 119.00-1.50L119.00-1.50L119.00-70.40L119.00-70.40Q119.00-71.80 120.40-71.80L120.40-71.80L128.40-71.80L128.40-71.80Q129.50-71.80 129.80-70.40L129.80-70.40L138.20-30.50L138.90-27.50L139.70-30.50L148.00-70.40L148.00-70.40Q148.30-71.80 149.40-71.80L149.40-71.80L157.50-71.80L157.50-71.80Q158.00-71.80 158.45-71.40L158.45-71.40L158.45-71.40Q158.90-71 158.90-70.40L158.90-70.40L158.90-1.50L158.90-1.50Q158.90-0.80 158.45-0.40L158.45-0.40L158.45-0.40Q158.00 0 157.50 0L157.50 0L149.50 0L149.50 0Q148.90 0 148.45-0.40L148.45-0.40L148.45-0.40Q148.00-0.80 148.00-1.50L148.00-1.50L148.00-36.50L142.10-9.10L141.90-9.10ZM175.40 0L167.10 0L167.10 0Q166.50 0 166.10-0.50L166.10-0.50L166.10-0.50Q165.70-1 165.80-1.60L165.80-1.60L177.30-70.60L177.30-70.60Q177.30-71.10 177.75-71.45L177.75-71.45L177.75-71.45Q178.20-71.80 178.70-71.80L178.70-71.80L183.40-71.80L183.60-71.80L188.30-71.80L188.30-71.80Q189.50-71.80 189.70-70.60L189.70-70.60L201.20-1.60L201.20-1.60Q201.40-1 200.95-0.50L200.95-0.50L200.95-0.50Q200.50 0 199.90 0L199.90 0L191.60 0L191.60 0Q190.40 0 190.20-1.30L190.20-1.30L188.70-12.40L178.30-12.40L176.80-1.30L176.80-1.30Q176.40 0 175.40 0L175.40 0ZM183.50-49.10L179.90-23.20L187.10-23.20L183.50-49.10ZM240.40-71.70L240.40-71.70L240.40-71.70Q241.10-71.70 241.50-71.25L241.50-71.25L241.50-71.25Q241.90-70.80 241.70-70.20L241.70-70.20L230.30-1.20L230.30-1.20Q230.10 0.10 228.90 0.10L228.90 0.10L224.10 0.10L224 0.10L219.20 0.10L219.20 0.10Q218 0.10 217.80-1.20L217.80-1.20L206.30-70.20L206.30-70.20Q206.20-70.80 206.60-71.25L206.60-71.25L206.60-71.25Q207-71.70 207.70-71.70L207.70-71.70L215.90-71.70L215.90-71.70Q217.10-71.70 217.30-70.60L217.30-70.60L224-22.60L230.80-70.60L230.80-70.60Q231-71.70 232.20-71.70L232.20-71.70L240.40-71.70ZM249.90-71.90L259.30-71.90L274.40-71.90L274.40-71.90Q274.90-71.90 275.35-71.50L275.35-71.50L275.35-71.50Q275.80-71.10 275.80-70.50L275.80-70.50L275.80-62.40L275.80-62.40Q275.80-61.90 275.35-61.45L275.35-61.45L275.35-61.45Q274.90-61 274.40-61L274.40-61L259.30-61L259.30-41.30L270.20-41.30L270.20-41.30Q270.70-41.30 271.15-40.90L271.15-40.90L271.15-40.90Q271.60-40.50 271.60-40L271.60-40L271.60-31.80L271.60-31.80Q271.60-31.30 271.15-30.85L271.15-30.85L271.15-30.85Q270.70-30.40 270.20-30.40L270.20-30.40L259.30-30.40L259.30-10.80L274.40-10.80L274.40-10.80Q274.90-10.80 275.35-10.40L275.35-10.40L275.35-10.40Q275.80-10 275.80-9.40L275.80-9.40L275.80-1.40L275.80-1.40Q275.80-0.80 275.35-0.40L275.35-0.40L275.35-0.40Q274.90 0 274.40 0L274.40 0L259.30 0L259.30 0.10L249.90 0.10L249.90 0.10Q249.30 0.10 248.90-0.35L248.90-0.35L248.90-0.35Q248.50-0.80 248.50-1.40L248.50-1.40L248.50-61L248.50-70.50L248.50-70.50Q248.50-71.90 249.90-71.90L249.90-71.90ZM309-71.80L317.10-71.80L317.10-71.80Q317.60-71.80 318.05-71.40L318.05-71.40L318.05-71.40Q318.50-71 318.50-70.40L318.50-70.40L318.50-1.40L318.50-1.40Q318.50-0.80 318.05-0.40L318.05-0.40L318.05-0.40Q317.60 0 317.10 0L317.10 0L309.20 0L309.20 0Q308.60 0 308.05-0.25L308.05-0.25L308.05-0.25Q307.50-0.50 307.30-1.30L307.30-1.30L307.30-1.30Q307.20-1.60 306.60-3.45L306.60-3.45L306.60-3.45Q306-5.30 305.15-8.25L305.15-8.25L305.15-8.25Q304.30-11.20 303.25-14.85L303.25-14.85L303.25-14.85Q302.20-18.50 301.10-22.30L301.10-22.30L301.10-22.30Q298.50-31.20 295.30-42.30L295.30-42.30L295.30-1.40L295.30-1.40Q295.30 0 293.90 0L293.90 0L285.90 0L285.90 0Q285.30 0 284.85-0.40L284.85-0.40L284.85-0.40Q284.40-0.80 284.40-1.40L284.40-1.40L284.40-70.40L284.40-70.40Q284.40-71 284.85-71.40L284.85-71.40L284.85-71.40Q285.30-71.80 285.90-71.80L285.90-71.80L293.90-71.80L293.90-71.80Q294.10-71.80 294.75-71.65L294.75-71.65L294.75-71.65Q295.40-71.50 295.70-70.50L295.70-70.50L295.70-70.50Q295.80-70.20 296.35-68.30L296.35-68.30L296.35-68.30Q296.90-66.40 297.75-63.45L297.75-63.45L297.75-63.45Q298.60-60.50 299.65-56.85L299.65-56.85L299.65-56.85Q300.70-53.20 301.80-49.50L301.80-49.50L301.80-49.50Q304.40-40.70 307.60-29.60L307.60-29.60L307.60-70.40L307.60-70.40Q307.60-71.80 309-71.80L309-71.80ZM347.70 0.10L347.70 0.10L347.70 0.10Q347.20 0.10 346.75-0.30L346.75-0.30L346.75-0.30Q346.30-0.70 346.30-1.30L346.30-1.30L346.30-70.30L346.30-70.30Q346.30-70.80 346.75-71.25L346.75-71.25L346.75-71.25Q347.20-71.70 347.70-71.70L347.70-71.70L355.80-71.70L355.80-71.70Q356.40-71.70 356.80-71.25L356.80-71.25L356.80-71.25Q357.20-70.80 357.20-70.30L357.20-70.30L357.20-1.30L357.20-1.30Q357.20 0.10 355.80 0.10L355.80 0.10L347.70 0.10ZM390.40-71.80L398.50-71.80L398.50-71.80Q399-71.80 399.45-71.40L399.45-71.40L399.45-71.40Q399.90-71 399.90-70.40L399.90-70.40L399.90-1.40L399.90-1.40Q399.90-0.80 399.45-0.40L399.45-0.40L399.45-0.40Q399 0 398.50 0L398.50 0L390.60 0L390.60 0Q390 0 389.45-0.25L389.45-0.25L389.45-0.25Q388.90-0.50 388.70-1.30L388.70-1.30L388.70-1.30Q388.60-1.60 388-3.45L388-3.45L388-3.45Q387.40-5.30 386.55-8.25L386.55-8.25L386.55-8.25Q385.70-11.20 384.65-14.85L384.65-14.85L384.65-14.85Q383.60-18.50 382.50-22.30L382.50-22.30L382.50-22.30Q379.90-31.20 376.70-42.30L376.70-42.30L376.70-1.40L376.70-1.40Q376.70 0 375.30 0L375.30 0L367.30 0L367.30 0Q366.70 0 366.25-0.40L366.25-0.40L366.25-0.40Q365.80-0.80 365.80-1.40L365.80-1.40L365.80-70.40L365.80-70.40Q365.80-71 366.25-71.40L366.25-71.40L366.25-71.40Q366.70-71.80 367.30-71.80L367.30-71.80L375.30-71.80L375.30-71.80Q375.50-71.80 376.15-71.65L376.15-71.65L376.15-71.65Q376.80-71.50 377.10-70.50L377.10-70.50L377.10-70.50Q377.20-70.20 377.75-68.30L377.75-68.30L377.75-68.30Q378.30-66.40 379.15-63.45L379.15-63.45L379.15-63.45Q380-60.50 381.05-56.85L381.05-56.85L381.05-56.85Q382.10-53.20 383.20-49.50L383.20-49.50L383.20-49.50Q385.80-40.70 389-29.60L389-29.60L389-70.40L389-70.40Q389-71.80 390.40-71.80L390.40-71.80ZM408.50-58.40L408.50-58.40L408.50-58.40Q408.50-61.20 409.55-63.65L409.55-63.65L409.55-63.65Q410.60-66.10 412.45-67.95L412.45-67.95L412.45-67.95Q414.30-69.80 416.75-70.85L416.75-70.85L416.75-70.85Q419.20-71.90 422-71.90L422-71.90L423.70-71.90L423.70-71.90Q426.50-71.90 428.95-70.85L428.95-70.85L428.95-70.85Q431.40-69.80 433.20-67.95L433.20-67.95L433.20-67.95Q435-66.10 436.05-63.65L436.05-63.65L436.05-63.65Q437.10-61.20 437.10-58.40L437.10-58.40L437.10-49.60L437.10-49.60Q437.10-49.10 436.70-48.65L436.70-48.65L436.70-48.65Q436.30-48.20 435.70-48.20L435.70-48.20L427.70-48.20L427.70-48.20Q427.10-48.20 426.70-48.65L426.70-48.65L426.70-48.65Q426.30-49.10 426.30-49.60L426.30-49.60L426.30-58.40L426.30-58.40Q426.30-59.50 425.55-60.25L425.55-60.25L425.55-60.25Q424.80-61 423.70-61L423.70-61L422-61L422-61Q420.90-61 420.15-60.25L420.15-60.25L420.15-60.25Q419.40-59.50 419.40-58.40L419.40-58.40L419.40-13.40L419.40-13.40Q419.40-12.30 420.15-11.55L420.15-11.55L420.15-11.55Q420.90-10.80 422-10.80L422-10.80L423.70-10.80L423.70-10.80Q424.80-10.80 425.55-11.55L425.55-11.55L425.55-11.55Q426.30-12.30 426.30-13.40L426.30-13.40L426.30-22.70L426.30-22.70Q426.30-24.10 427.70-24.10L427.70-24.10L435.70-24.10L435.70-24.10Q437.10-24.10 437.10-22.70L437.10-22.70L437.10-13.40L437.10-13.40Q437.10-10.60 436.05-8.15L436.05-8.15L436.05-8.15Q435-5.70 433.20-3.90L433.20-3.90L433.20-3.90Q431.40-2.10 428.95-1.05L428.95-1.05L428.95-1.05Q426.50 0 423.70 0L423.70 0L422 0L422 0Q419.20 0 416.75-1.05L416.75-1.05L416.75-1.05Q414.30-2.10 412.45-3.90L412.45-3.90L412.45-3.90Q410.60-5.70 409.55-8.15L409.55-8.15L409.55-8.15Q408.50-10.60 408.50-13.40L408.50-13.40L408.50-58.40ZM452.40-8L452.40-8L452.40-8Q453-8 453.40-7.55L453.40-7.55L453.40-7.55Q453.80-7.10 453.80-6.60L453.80-6.60L453.80-1.50L453.80-1.50Q453.80 0 452.40 0L452.40 0L447.20 0L447.20 0Q446.70 0 446.25-0.40L446.25-0.40L446.25-0.40Q445.80-0.80 445.80-1.50L445.80-1.50L445.80-6.60L445.80-6.60Q445.80-7.10 446.25-7.55L446.25-7.55L446.25-7.55Q446.70-8 447.20-8L447.20-8L452.40-8Z"/></g><g id="" class="logo--name svgSloganText_1 sloganBox" transform="scale(1) translate(320,326.4)" fill=""><path d=""/></g></g></g></g></svg>